<svg id="footer-copy_sp.svg" xmlns="http://www.w3.org/2000/svg" width="565.125" height="81.6" viewBox="0 0 565.125 81.6">
  <defs>
    <style>
      .cls-1 {
        stroke: #fff;
        stroke-linejoin: round;
        stroke-width: 2px;
      }

      .cls-2 {
        fill: #446;
        fill-rule: evenodd;
      }
    </style>
  </defs>
  <path id="All_rights_reserved." data-name="All rights reserved." class="cls-2" d="M206.154,16783.4l0.56-1.3a5.515,5.515,0,0,0-2.92-.7,4.769,4.769,0,0,0-3.46,1.1,4.263,4.263,0,0,0-1.26,3.2,4.211,4.211,0,0,0,1.29,3.2,4.785,4.785,0,0,0,3.43,1.1,5.515,5.515,0,0,0,2.92-.7l-0.56-1.3a4.373,4.373,0,0,1-2.18.6,3.014,3.014,0,0,1-2.11-.8,2.72,2.72,0,0,1-.81-2.1,2.776,2.776,0,0,1,.78-2.1,2.984,2.984,0,0,1,2.14-.8,4.373,4.373,0,0,1,2.18.6h0Zm-8.8,2.3a5.507,5.507,0,0,1,1.76-4.2,5.894,5.894,0,0,1,8.48,0,5.891,5.891,0,0,1,0,8.4,5.894,5.894,0,0,1-8.48,0A5.507,5.507,0,0,1,197.354,16785.7Zm13.4,0a7.05,7.05,0,0,0-2.17-5.2,7.317,7.317,0,0,0-10.46,0,7.315,7.315,0,0,0,0,10.4,7.317,7.317,0,0,0,10.46,0A7.05,7.05,0,0,0,210.754,16785.7Zm18.32-4.9,0.5-1.7a10.447,10.447,0,0,0-4.3-.9,5.19,5.19,0,0,0-3.45,1,3.566,3.566,0,0,0-1.25,2.8,3.487,3.487,0,0,0,1.11,2.6,9.046,9.046,0,0,0,3.49,1.8,4.674,4.674,0,0,1,2.04,1.1,2.2,2.2,0,0,1,.56,1.6,2.163,2.163,0,0,1-.7,1.7,2.986,2.986,0,0,1-2,.6,6.894,6.894,0,0,1-3.9-1.2l-0.6,1.8a8.646,8.646,0,0,0,4.5,1.2,5.563,5.563,0,0,0,3.63-1.1,3.671,3.671,0,0,0,1.27-3,4.047,4.047,0,0,0-1.09-2.9,8.982,8.982,0,0,0-3.71-1.8q-2.441-.75-2.44-2.4a1.943,1.943,0,0,1,.66-1.5,2.681,2.681,0,0,1,1.88-.5,8.082,8.082,0,0,1,3.8.8h0Zm12.918-.6v-1.8h-8.8v14.6h8.8v-1.8h-6.6v-5.1h6.2v-1.7h-6.2v-4.2h6.6Zm13.282,10.7a5.533,5.533,0,0,1-2.6.5,5.961,5.961,0,0,1-4.28-1.5,5.515,5.515,0,0,1-1.58-4.2,6,6,0,0,1,1.5-4.2,5.623,5.623,0,0,1,4.16-1.5,6.95,6.95,0,0,1,3.64,1l0.7-1.6a8.584,8.584,0,0,0-4.54-1.2,7.9,7.9,0,0,0-5.63,2,7.444,7.444,0,0,0-2.07,5.5,7.294,7.294,0,0,0,2.15,5.5,8.257,8.257,0,0,0,5.75,2,11.341,11.341,0,0,0,4.9-1.1v-7.7h-6.7v1.7h4.6v4.8Zm7.014,2.1,1.26-3.9h5.64l1.26,3.9h2.36l-5.2-14.6h-2.4l-5.2,14.6h2.28Zm4.06-12.6h0.04l2.26,7h-4.56Zm22.58-2-6.9,15.4h2.1l6.9-15.4h-2.1Zm21.92,5,0.56-1.3a5.515,5.515,0,0,0-2.92-.7,4.769,4.769,0,0,0-3.46,1.1,4.263,4.263,0,0,0-1.26,3.2,4.211,4.211,0,0,0,1.29,3.2,4.785,4.785,0,0,0,3.43,1.1,5.515,5.515,0,0,0,2.92-.7l-0.56-1.3a4.373,4.373,0,0,1-2.18.6,3.014,3.014,0,0,1-2.11-.8,2.72,2.72,0,0,1-.81-2.1,2.776,2.776,0,0,1,.78-2.1,2.984,2.984,0,0,1,2.14-.8,4.373,4.373,0,0,1,2.18.6h0Zm-8.8,2.3a5.507,5.507,0,0,1,1.76-4.2,5.894,5.894,0,0,1,8.48,0,5.891,5.891,0,0,1,0,8.4,5.894,5.894,0,0,1-8.48,0A5.507,5.507,0,0,1,302.048,16785.7Zm13.4,0a7.05,7.05,0,0,0-2.17-5.2,7.317,7.317,0,0,0-10.46,0,7.315,7.315,0,0,0,0,10.4,7.317,7.317,0,0,0,10.46,0A7.05,7.05,0,0,0,315.448,16785.7Zm20.72-4.6,0.7-1.6a7.992,7.992,0,0,0-4.6-1.3,7.431,7.431,0,0,0-5.4,2,8.514,8.514,0,0,0,.03,11,7.456,7.456,0,0,0,5.37,2,7.992,7.992,0,0,0,4.6-1.3l-0.7-1.6a7.174,7.174,0,0,1-3.7,1.1,5.225,5.225,0,0,1-3.86-1.5,6,6,0,0,1-1.5-4.2,5.658,5.658,0,0,1,1.47-4.1,4.92,4.92,0,0,1,3.89-1.6,7.174,7.174,0,0,1,3.7,1.1h0Zm2.89,6.7a5.236,5.236,0,0,0,1.37,3.9,5.142,5.142,0,0,0,7.26,0,6.236,6.236,0,0,0,0-7.8,5.142,5.142,0,0,0-7.26,0A5.236,5.236,0,0,0,339.058,16787.8Zm2.04,0a4.441,4.441,0,0,1,.8-2.8,2.833,2.833,0,0,1,4.32,0,5.3,5.3,0,0,1,0,5.6,2.833,2.833,0,0,1-4.32,0A4.441,4.441,0,0,1,341.1,16787.8Zm13.452,5.2v-15h-2.12v15h2.12Zm3.382-5.2a5.236,5.236,0,0,0,1.37,3.9,5.142,5.142,0,0,0,7.26,0,6.236,6.236,0,0,0,0-7.8,5.142,5.142,0,0,0-7.26,0A5.236,5.236,0,0,0,357.932,16787.8Zm2.04,0a4.441,4.441,0,0,1,.8-2.8,2.833,2.833,0,0,1,4.32,0,5.3,5.3,0,0,1,0,5.6,2.833,2.833,0,0,1-4.32,0A4.441,4.441,0,0,1,359.972,16787.8Zm12.986-3.2h-0.04l-0.04-2h-1.94v10.4h2.04v-4.6a4.009,4.009,0,0,1,1.28-3.1,4.883,4.883,0,0,1,3.48-1.2v-1.7a5.843,5.843,0,0,0-4.78,2.2h0Zm10.116,0v8.4h2.04v-8.4h3.36v-1.6h-3.36v-1.1a2.421,2.421,0,0,1,.39-1.6,1.751,1.751,0,0,1,1.37-.5,3.433,3.433,0,0,1,1.4.3l0.4-1.6a6.668,6.668,0,0,0-2-.3c-2.4,0-3.6,1.2-3.6,3.7v1.1h-2.6v1.6h2.6Zm17.13,8.4v-10.4h-2v5.6a3.293,3.293,0,0,1-.84,2.3,2.321,2.321,0,0,1-1.86,1,2.055,2.055,0,0,1-1.49-.5,3.477,3.477,0,0,1-.45-2v-6.4H391.6v6.6a4.492,4.492,0,0,0,.8,3,2.8,2.8,0,0,0,2.4,1,4.225,4.225,0,0,0,3.42-1.7h0.04l0.04,1.5h1.9Zm6.07,0v-15h-2.12v15h2.12Zm16.12-5.4c3.733,0,5.6-1.6,5.6-4.9a4.089,4.089,0,0,0-1.42-3.3,6.329,6.329,0,0,0-4.18-1.2,30.832,30.832,0,0,0-4.4.3v14.5h2.2v-5.5a16.6,16.6,0,0,0,2.2.1h0Zm-2.2-7.5a12.2,12.2,0,0,1,2-.1,4.233,4.233,0,0,1,2.72.7,2.63,2.63,0,0,1,.92,2.2,2.6,2.6,0,0,1-.94,2.2,4.244,4.244,0,0,1-2.7.8,13.552,13.552,0,0,1-2-.2v-5.6Zm16.674,8.6a2.85,2.85,0,0,1-.92,2.1,3.012,3.012,0,0,1-2.18.9,1.58,1.58,0,0,1-1.19-.4,1.622,1.622,0,0,1-.45-1.2,1.778,1.778,0,0,1,.97-1.6,4.454,4.454,0,0,1,2.77-.7h1v0.9Zm-5.86,3.7a3.292,3.292,0,0,0,2.26.8,5.344,5.344,0,0,0,2.23-.5,3.37,3.37,0,0,0,1.55-1.3h0.04a10.5,10.5,0,0,0,.18,1.6h1.9a13.329,13.329,0,0,1-.3-2.8v-4a3.732,3.732,0,0,0-1.02-2.9,4.9,4.9,0,0,0-3.28-.9,7.92,7.92,0,0,0-3.8.9l0.3,1.6a7.018,7.018,0,0,1,3.5-.9,2.706,2.706,0,0,1,1.79.5,2.387,2.387,0,0,1,.51,1.8v0.1h-1a7.236,7.236,0,0,0-4.23,1,3.237,3.237,0,0,0-1.47,2.8A2.893,2.893,0,0,0,431.008,16792.4Zm13.98,0.6v-15h-2.12v15h2.12Zm6.232-8.2a2.49,2.49,0,0,1,2.05-.8,2.378,2.378,0,0,1,2.01.8,3.21,3.21,0,0,1,.75,2.2h-5.62A3.182,3.182,0,0,1,451.22,16784.8Zm6.71,3.8q0.041-.6.04-0.9a5.566,5.566,0,0,0-1.24-3.9,4.494,4.494,0,0,0-3.46-1.4,4.818,4.818,0,0,0-3.57,1.4,5.749,5.749,0,0,0-1.33,4,5.261,5.261,0,0,0,1.43,3.9,4.847,4.847,0,0,0,3.67,1.5,9.287,9.287,0,0,0,3.7-.8l-0.5-1.5a6.583,6.583,0,0,1-3,.7,3.052,3.052,0,0,1-2.29-.8,2.956,2.956,0,0,1-.97-2.2h7.52Zm6.584-9.4h-2.04v3.8h-2.2v1.6h2.2v5.2a3.609,3.609,0,0,0,.77,2.6,3.541,3.541,0,0,0,2.53.8,6.442,6.442,0,0,0,2.4-.4l-0.3-1.6a3.578,3.578,0,0,1-1.8.4,1.432,1.432,0,0,1-1.22-.4,3.246,3.246,0,0,1-.34-1.8v-4.8h3.76v-1.6h-3.76v-3.8Zm10.884,0h-2.04v3.8h-2.2v1.6h2.2v5.2a3.609,3.609,0,0,0,.77,2.6,3.541,3.541,0,0,0,2.53.8,6.442,6.442,0,0,0,2.4-.4l-0.3-1.6a3.578,3.578,0,0,1-1.8.4,1.432,1.432,0,0,1-1.22-.4,3.246,3.246,0,0,1-.34-1.8v-4.8h3.76v-1.6H475.4v-3.8Zm9.07,5.6a2.49,2.49,0,0,1,2.05-.8,2.378,2.378,0,0,1,2.01.8,3.21,3.21,0,0,1,.75,2.2h-5.62A3.182,3.182,0,0,1,484.468,16784.8Zm6.71,3.8q0.04-.6.04-0.9a5.566,5.566,0,0,0-1.24-3.9,4.494,4.494,0,0,0-3.46-1.4,4.818,4.818,0,0,0-3.57,1.4,5.749,5.749,0,0,0-1.33,4,5.261,5.261,0,0,0,1.43,3.9,4.847,4.847,0,0,0,3.67,1.5,9.287,9.287,0,0,0,3.7-.8l-0.5-1.5a6.583,6.583,0,0,1-3,.7,3.052,3.052,0,0,1-2.29-.8,2.956,2.956,0,0,1-.97-2.2h7.52Zm13.36,4.4v-14.6h-2.4v14.6h2.4Zm4.058-10.4v10.4h2v-5.6a3.293,3.293,0,0,1,.84-2.3,2.454,2.454,0,0,1,1.86-1.1,2.04,2.04,0,0,1,1.67.7,4.854,4.854,0,0,1,.47,2.5v5.8h1.96v-6c0-3.1-1.133-4.6-3.4-4.6a4.212,4.212,0,0,0-1.88.5,4.86,4.86,0,0,0-1.54,1.2h-0.04l-0.04-1.5h-1.9Zm20.324,0.5a7.638,7.638,0,0,0-3.3-.7,5.408,5.408,0,0,0-3.9,1.4,5.573,5.573,0,0,0-1.4,4,5.03,5.03,0,0,0,1.47,3.9,5.125,5.125,0,0,0,3.83,1.5,7.638,7.638,0,0,0,3.3-.7l-0.5-1.6a5.273,5.273,0,0,1-2.7.7,2.984,2.984,0,0,1-2.37-1,4.011,4.011,0,0,1-.93-2.8,4.156,4.156,0,0,1,.88-2.8,3.291,3.291,0,0,1,2.42-1,6.5,6.5,0,0,1,2.7.7Zm6.006,9.9v-3h-2.6v3h2.6Zm17.32-14.6-6.9,15.4h2.1l6.9-15.4h-2.1Zm-448.139,35,0.56-1.3a5.515,5.515,0,0,0-2.92-.7,4.769,4.769,0,0,0-3.46,1.1,4.263,4.263,0,0,0-1.26,3.2,4.211,4.211,0,0,0,1.29,3.2,5.285,5.285,0,0,0,3.43,1.1,5.515,5.515,0,0,0,2.92-.7l-0.56-1.3a4.373,4.373,0,0,1-2.18.6,3.013,3.013,0,0,1-2.11-.8,2.72,2.72,0,0,1-.81-2.1,2.776,2.776,0,0,1,.78-2.1,2.984,2.984,0,0,1,2.14-.8,4.373,4.373,0,0,1,2.18.6h0Zm-8.8,2.3a5.505,5.505,0,0,1,1.76-4.2,5.894,5.894,0,0,1,8.48,0,5.891,5.891,0,0,1,0,8.4,5.894,5.894,0,0,1-8.48,0A5.505,5.505,0,0,1,95.307,16815.7Zm13.4,0a7.05,7.05,0,0,0-2.17-5.2,7.316,7.316,0,0,0-10.46,0,7.315,7.315,0,0,0,0,10.4,7.316,7.316,0,0,0,10.46,0A7.05,7.05,0,0,0,108.707,16815.7Zm20.72-4.6,0.7-1.6a7.992,7.992,0,0,0-4.6-1.3,7.431,7.431,0,0,0-5.4,2,8.514,8.514,0,0,0,.03,11,7.456,7.456,0,0,0,5.37,2,7.992,7.992,0,0,0,4.6-1.3l-0.7-1.6a7.174,7.174,0,0,1-3.7,1.1,5.225,5.225,0,0,1-3.86-1.5,6,6,0,0,1-1.5-4.2,5.658,5.658,0,0,1,1.47-4.1,4.92,4.92,0,0,1,3.89-1.6,7.174,7.174,0,0,1,3.7,1.1h0Zm5.742,3.5h-0.04l-0.04-2h-1.94v10.4h2.04v-4.6a4.009,4.009,0,0,1,1.28-3.1,4.883,4.883,0,0,1,3.48-1.2v-1.7a5.843,5.843,0,0,0-4.78,2.2h0Zm9.518-2h-2.2l3.8,10.4-1.92,4.4h2.12l6-14.8h-2.12l-2.96,8h-0.04Zm12.466,1.5-0.04-1.5h-1.9v14.8h2v-5.7h0.04a3.78,3.78,0,0,0,3.16,1.5,3.849,3.849,0,0,0,3.05-1.4,7.645,7.645,0,0,0,.04-8,3.817,3.817,0,0,0-3.09-1.4,3.762,3.762,0,0,0-3.22,1.7h-0.04Zm4.75,6.5a2.286,2.286,0,0,1-1.99,1,2.255,2.255,0,0,1-1.94-1,4.1,4.1,0,0,1-.76-2.7v-0.2a4.289,4.289,0,0,1,.76-2.7,2.46,2.46,0,0,1,3.96,0,4.392,4.392,0,0,1,.72,2.8A4.452,4.452,0,0,1,161.9,16820.6Zm9.274-11.4h-2.04v3.8h-2.2v1.6h2.2v5.2a3.609,3.609,0,0,0,.77,2.6,3.541,3.541,0,0,0,2.53.8,6.442,6.442,0,0,0,2.4-.4l-0.3-1.6a3.578,3.578,0,0,1-1.8.4,1.228,1.228,0,0,1-1.22-.5,2.648,2.648,0,0,1-.34-1.7v-4.8h3.76v-1.6h-3.76v-3.8Zm6.2,8.6a5.236,5.236,0,0,0,1.37,3.9,5.142,5.142,0,0,0,7.26,0,6.236,6.236,0,0,0,0-7.8,5.142,5.142,0,0,0-7.26,0A5.236,5.236,0,0,0,177.377,16817.8Zm2.04,0a4.441,4.441,0,0,1,.8-2.8,2.833,2.833,0,0,1,4.32,0,5.3,5.3,0,0,1,0,5.6,2.833,2.833,0,0,1-4.32,0A4.441,4.441,0,0,1,179.417,16817.8Zm10.966-5.2v10.4h2v-5.6a3.736,3.736,0,0,1,.84-2.4,2.64,2.64,0,0,1,1.86-1,2.04,2.04,0,0,1,1.67.7,4.854,4.854,0,0,1,.47,2.5v5.8h1.96v-6c0-3.1-1.133-4.6-3.4-4.6a3.226,3.226,0,0,0-1.88.5,4.86,4.86,0,0,0-1.54,1.2h-0.04l-0.04-1.5h-1.9Zm19.72,10.4h2.2v-6.7h6v-1.7h-6v-4.4h6.4v-1.8h-8.6v14.6Zm20.02,0v-10.4h-2v5.6a3.293,3.293,0,0,1-.84,2.3,2.321,2.321,0,0,1-1.86,1,2.055,2.055,0,0,1-1.49-.5,3.477,3.477,0,0,1-.45-2v-6.4h-1.96v6.6a4.492,4.492,0,0,0,.8,3,2.8,2.8,0,0,0,2.4,1,4.225,4.225,0,0,0,3.42-1.7h0.04l0.04,1.5h1.9Zm7.114-13.8H235.2v3.8H233v1.6h2.2v5.2a3.609,3.609,0,0,0,.77,2.6,3.541,3.541,0,0,0,2.53.8,6.442,6.442,0,0,0,2.4-.4l-0.3-1.6a3.578,3.578,0,0,1-1.8.4,1.228,1.228,0,0,1-1.22-.5,2.648,2.648,0,0,1-.34-1.7v-4.8H241v-1.6h-3.76v-3.8Zm15.44,13.8v-10.4h-2v5.6a3.293,3.293,0,0,1-.84,2.3,2.321,2.321,0,0,1-1.86,1,2.055,2.055,0,0,1-1.49-.5,3.477,3.477,0,0,1-.45-2v-6.4h-1.96v6.6a4.492,4.492,0,0,0,.8,3,2.8,2.8,0,0,0,2.4,1,4.225,4.225,0,0,0,3.42-1.7h0.04l0.04,1.5h1.9Zm5.63-8.4h-0.04l-0.04-2h-1.94v10.4h2.04v-4.6a4.009,4.009,0,0,1,1.28-3.1,4.883,4.883,0,0,1,3.48-1.2v-1.7a5.843,5.843,0,0,0-4.78,2.2h0Zm9.772,0.2a2.49,2.49,0,0,1,2.05-.8,2.378,2.378,0,0,1,2.01.8,3.21,3.21,0,0,1,.75,2.2h-5.62A3.182,3.182,0,0,1,268.079,16814.8Zm6.71,3.8q0.04-.6.04-0.9a5.566,5.566,0,0,0-1.24-3.9,4.494,4.494,0,0,0-3.46-1.4,4.818,4.818,0,0,0-3.57,1.4,5.749,5.749,0,0,0-1.33,4,5.261,5.261,0,0,0,1.43,3.9,4.847,4.847,0,0,0,3.67,1.5,9.287,9.287,0,0,0,3.7-.8l-0.5-1.5a6.583,6.583,0,0,1-3,.7,3.052,3.052,0,0,1-2.29-.8,2.956,2.956,0,0,1-.97-2.2h7.52Zm12.58,4.4v-10.8h0.04l3.8,6.8h2l3.8-6.8h0.04v10.8h2.2v-14.6h-2.2l-4.82,8.6h-0.04l-4.82-8.6h-2.12v14.6h2.12Zm17.942-8.2a2.49,2.49,0,0,1,2.05-.8,2.378,2.378,0,0,1,2.01.8,3.21,3.21,0,0,1,.75,2.2H304.5A3.182,3.182,0,0,1,305.311,16814.8Zm6.71,3.8q0.041-.6.04-0.9a5.566,5.566,0,0,0-1.24-3.9,4.494,4.494,0,0,0-3.46-1.4,4.818,4.818,0,0,0-3.57,1.4,5.749,5.749,0,0,0-1.33,4,5.261,5.261,0,0,0,1.43,3.9,4.847,4.847,0,0,0,3.67,1.5,9.287,9.287,0,0,0,3.7-.8l-0.5-1.5a6.583,6.583,0,0,1-3,.7,3.052,3.052,0,0,1-2.29-.8,2.956,2.956,0,0,1-.97-2.2h7.52Zm9.968-10.6v6h-0.04a3.619,3.619,0,0,0-3.16-1.6,3.817,3.817,0,0,0-3.09,1.4,7.645,7.645,0,0,0,.04,8,3.849,3.849,0,0,0,3.05,1.4,3.729,3.729,0,0,0,3.22-1.7h0.04l0.04,1.5h1.9v-15h-2Zm-4.72,7a2.46,2.46,0,0,1,3.96,0,4.289,4.289,0,0,1,.76,2.7v0.2a4.1,4.1,0,0,1-.76,2.7,2.255,2.255,0,0,1-1.94,1,2.286,2.286,0,0,1-1.99-1,4.452,4.452,0,0,1-.75-2.8A4.392,4.392,0,0,1,317.269,16815Zm12.838-4.8v-2.2h-2.12v2.2h2.12Zm0,12.8v-10.4h-2.12v10.4h2.12Zm10.116-4.3a2.85,2.85,0,0,1-.92,2.1,3.012,3.012,0,0,1-2.18.9,1.58,1.58,0,0,1-1.19-.4,1.622,1.622,0,0,1-.45-1.2,1.778,1.778,0,0,1,.97-1.6,4.454,4.454,0,0,1,2.77-.7h1v0.9Zm-5.86,3.7a3.292,3.292,0,0,0,2.26.8,5.344,5.344,0,0,0,2.23-.5,3.37,3.37,0,0,0,1.55-1.3h0.04a10.5,10.5,0,0,0,.18,1.6h1.9a13.329,13.329,0,0,1-.3-2.8v-4a3.732,3.732,0,0,0-1.02-2.9,4.9,4.9,0,0,0-3.28-.9,7.92,7.92,0,0,0-3.8.9l0.3,1.6a7.018,7.018,0,0,1,3.5-.9,2.706,2.706,0,0,1,1.79.5,2.387,2.387,0,0,1,.51,1.8v0.1h-1a7.236,7.236,0,0,0-4.23,1,3.237,3.237,0,0,0-1.47,2.8A2.893,2.893,0,0,0,334.363,16822.4Zm10.988,2.8h2l2.2-5.2h-2.8Zm18.02-2.2v-14.6h-2.4v14.6h2.4Zm6.414,0v-10.9h0.04l6.84,10.9h2.16v-14.6h-2.16v10.9h-0.04l-6.84-10.9h-2.16v14.6h2.16Zm23.57-11.9,0.7-1.6a7.992,7.992,0,0,0-4.6-1.3,7.431,7.431,0,0,0-5.4,2,8.514,8.514,0,0,0,.03,11,7.456,7.456,0,0,0,5.37,2,7.992,7.992,0,0,0,4.6-1.3l-0.7-1.6a7.174,7.174,0,0,1-3.7,1.1,5.225,5.225,0,0,1-3.86-1.5,6,6,0,0,1-1.5-4.2,5.658,5.658,0,0,1,1.47-4.1,4.92,4.92,0,0,1,3.89-1.6,7.174,7.174,0,0,1,3.7,1.1h0Zm6.994,11.9v-3h-2.6v3h2.6Zm10.62-10.4,2.8,10.4h2.7l1.78-8.4h0.04l1.78,8.4h2.7l2.8-10.4h-2.16l-1.88,8.6h-0.04l-1.78-8.6h-2.8l-1.78,8.6h-0.04l-1.88-8.6h-2.24Zm17.128,0,2.8,10.4h2.7l1.78-8.4h0.04l1.78,8.4h2.7l2.8-10.4h-2.16l-1.88,8.6h-0.04l-1.78-8.6h-2.8l-1.78,8.6h-0.04l-1.88-8.6H428.1Zm17.128,0,2.8,10.4h2.7l1.78-8.4h0.04l1.78,8.4h2.7l2.8-10.4h-2.16l-1.88,8.6h-0.04l-1.78-8.6h-2.8l-1.78,8.6h-0.04l-1.88-8.6h-2.24Zm19.6,10.4v-3h-2.6v3h2.6Zm5.75-8.9-0.04-1.5h-1.9v14.8h2v-5.7h0.04a3.78,3.78,0,0,0,3.16,1.5,3.849,3.849,0,0,0,3.05-1.4,7.645,7.645,0,0,0,.04-8,3.817,3.817,0,0,0-3.09-1.4,3.762,3.762,0,0,0-3.22,1.7h-0.04Zm4.75,6.5a2.286,2.286,0,0,1-1.99,1,2.255,2.255,0,0,1-1.94-1,4.1,4.1,0,0,1-.76-2.7v-0.2a4.289,4.289,0,0,1,.76-2.7,2.46,2.46,0,0,1,3.96,0,4.392,4.392,0,0,1,.72,2.8A4.452,4.452,0,0,1,475.323,16820.6Zm8.32-10.4v-2.2h-2.12v2.2h2.12Zm0,12.8v-10.4h-2.12v10.4h2.12Zm10.116-4.3a2.85,2.85,0,0,1-.92,2.1,3.012,3.012,0,0,1-2.18.9,1.58,1.58,0,0,1-1.19-.4,1.622,1.622,0,0,1-.45-1.2,1.778,1.778,0,0,1,.97-1.6,4.454,4.454,0,0,1,2.77-.7h1v0.9Zm-5.86,3.7a3.292,3.292,0,0,0,2.26.8,5.344,5.344,0,0,0,2.23-.5,3.37,3.37,0,0,0,1.55-1.3h0.04a10.5,10.5,0,0,0,.18,1.6h1.9a13.329,13.329,0,0,1-.3-2.8v-4a3.732,3.732,0,0,0-1.02-2.9,4.9,4.9,0,0,0-3.28-.9,7.92,7.92,0,0,0-3.8.9l0.3,1.6a7.018,7.018,0,0,1,3.5-.9,2.706,2.706,0,0,1,1.79.5,2.387,2.387,0,0,1,.51,1.8v0.1h-1a7.236,7.236,0,0,0-4.23,1,3.237,3.237,0,0,0-1.47,2.8A2.893,2.893,0,0,0,487.9,16822.4Zm13.442-8.3-0.04-1.5h-1.9v14.8h2v-5.7h0.04a3.78,3.78,0,0,0,3.16,1.5,3.849,3.849,0,0,0,3.05-1.4,7.645,7.645,0,0,0,.04-8,3.817,3.817,0,0,0-3.09-1.4,3.762,3.762,0,0,0-3.22,1.7h-0.04Zm4.75,6.5a2.286,2.286,0,0,1-1.99,1,2.255,2.255,0,0,1-1.94-1,4.1,4.1,0,0,1-.76-2.7v-0.2a4.289,4.289,0,0,1,.76-2.7,2.46,2.46,0,0,1,3.96,0,4.392,4.392,0,0,1,.72,2.8A4.452,4.452,0,0,1,506.091,16820.6Zm7.856-6h-0.04l-0.04-2h-1.94v10.4h2.04v-4.6a4.009,4.009,0,0,1,1.28-3.1,4.883,4.883,0,0,1,3.48-1.2v-1.7a5.843,5.843,0,0,0-4.78,2.2h0Zm6.9,3.2a5.236,5.236,0,0,0,1.37,3.9,5.142,5.142,0,0,0,7.26,0,6.236,6.236,0,0,0,0-7.8,5.142,5.142,0,0,0-7.26,0A5.236,5.236,0,0,0,520.849,16817.8Zm2.04,0a4.441,4.441,0,0,1,.8-2.8,2.833,2.833,0,0,1,4.32,0,5.3,5.3,0,0,1,0,5.6,2.833,2.833,0,0,1-4.32,0A4.441,4.441,0,0,1,522.889,16817.8Zm13.566,5.2v-3h-2.6v3h2.6Zm3.81-10.4v10.4h2v-5.6a3.736,3.736,0,0,1,.84-2.4,2.64,2.64,0,0,1,1.86-1,2.04,2.04,0,0,1,1.67.7,4.854,4.854,0,0,1,.47,2.5v5.8h1.96v-6c0-3.1-1.133-4.6-3.4-4.6a3.226,3.226,0,0,0-1.88.5,4.86,4.86,0,0,0-1.54,1.2h-0.04l-0.04-1.5h-1.9Zm14.574,2.2a2.49,2.49,0,0,1,2.05-.8,2.378,2.378,0,0,1,2.01.8,3.21,3.21,0,0,1,.75,2.2h-5.62A3.182,3.182,0,0,1,554.839,16814.8Zm6.71,3.8q0.041-.6.04-0.9a5.566,5.566,0,0,0-1.24-3.9,4.494,4.494,0,0,0-3.46-1.4,4.818,4.818,0,0,0-3.57,1.4,5.749,5.749,0,0,0-1.33,4,5.261,5.261,0,0,0,1.43,3.9,4.847,4.847,0,0,0,3.67,1.5,9.287,9.287,0,0,0,3.7-.8l-0.5-1.5a6.583,6.583,0,0,1-3,.7,3.052,3.052,0,0,1-2.29-.8,2.956,2.956,0,0,1-.97-2.2h7.52Zm6.584-9.4h-2.04v3.8h-2.2v1.6h2.2v5.2a3.609,3.609,0,0,0,.77,2.6,3.541,3.541,0,0,0,2.53.8,6.442,6.442,0,0,0,2.4-.4l-0.3-1.6a3.578,3.578,0,0,1-1.8.4,1.228,1.228,0,0,1-1.22-.5,2.648,2.648,0,0,1-.34-1.7v-4.8h3.76v-1.6h-3.76v-3.8Zm74.706-.1-5.105,3.3a3.281,3.281,0,0,0-1.447,2.9v5.9a1.882,1.882,0,1,0,3.763,0v-4.8a1.726,1.726,0,0,1,.825-1.6l3.991-2.5v-2.3Zm-52.05.6a6.784,6.784,0,0,0-6.747,5.9,1.872,1.872,0,0,0-.069.5v10.9l3.762-2.5v-8h0a2.809,2.809,0,0,1,.893-2.1,3.04,3.04,0,0,1,4.318,0,2.8,2.8,0,0,1,.9,2.1,3.21,3.21,0,0,1-.894,2.2,2.95,2.95,0,0,1-2.159.9,2.981,2.981,0,0,1-1.583-.5v4a4.274,4.274,0,0,0,1.583.2A6.8,6.8,0,1,0,590.789,16809.7Zm21.2,0a6.8,6.8,0,1,0,0,13.6h0a4.2,4.2,0,0,0,1.58-.2v-4a2.915,2.915,0,0,1-3.74-.4,3.206,3.206,0,0,1-.9-2.2,2.81,2.81,0,0,1,.894-2.1,3.04,3.04,0,0,1,4.318,0,2.8,2.8,0,0,1,.895,2.1h0v5.1l1.358,0.9,2.4,1.5s0-7,0-7.5A6.85,6.85,0,0,0,611.989,16809.7Zm15.576,0a6.784,6.784,0,0,0-6.747,5.9,1.872,1.872,0,0,0-.069.5v8.4l3.762,2.4v-10.4h0a2.807,2.807,0,0,1,.895-2.1,3.038,3.038,0,0,1,4.317,0,2.8,2.8,0,0,1,.9,2.1,3.21,3.21,0,0,1-.894,2.2,2.918,2.918,0,0,1-3.742.4v4a4.274,4.274,0,0,0,1.583.2A6.8,6.8,0,1,0,627.565,16809.7Zm24.645,0a6.849,6.849,0,0,0-6.816,6.8,6.769,6.769,0,0,0,3.763,6.1v-6.1h0a2.808,2.808,0,0,1,.892-2.1,3.041,3.041,0,0,1,4.319,0,2.8,2.8,0,0,1,.895,2.1,3.2,3.2,0,0,1-.893,2.2,2.918,2.918,0,0,1-3.742.4v4a4.215,4.215,0,0,0,1.582.2h0A6.8,6.8,0,1,0,652.21,16809.7Zm-50.758-.7-1.881,1v2.6l1.881-1.1,1.882,1.1v-2.6Zm-1.881,5.2v7.2a1.882,1.882,0,1,0,3.763,0v-7.2l-1.882-1.1Zm-321.9,40.8,1.26-3.9h5.64l1.26,3.9h2.36l-5.2-14.6h-2.4l-5.2,14.6h2.28Zm4.06-12.6h0.04l2.26,7h-4.56Zm11.66,12.6v-15h-2.12v15h2.12Zm6.426,0v-15H297.7v15h2.12Zm13.54-8.4h-0.04l-0.04-2h-1.94v10.4h2.04v-4.6a4.009,4.009,0,0,1,1.28-3.1,4.883,4.883,0,0,1,3.48-1.2v-1.7a5.843,5.843,0,0,0-4.78,2.2h0Zm10.178-4.4v-2.2h-2.12v2.2h2.12Zm0,12.8v-10.4h-2.12v10.4h2.12Zm6.122-8.1a2.32,2.32,0,0,1,1.94-.9,2.548,2.548,0,0,1,2.02.9,3.918,3.918,0,0,1,.78,2.6v0.2a3.955,3.955,0,0,1-.77,2.6,2.54,2.54,0,0,1-2.03.9,2.189,2.189,0,0,1-1.9-1,4.066,4.066,0,0,1-.74-2.6A4.353,4.353,0,0,1,329.656,16846.9Zm-1.49,6.5a3.765,3.765,0,0,0,2.93,1.4,3.655,3.655,0,0,0,3.26-1.6h0.04v0.9a4.759,4.759,0,0,1-.74,3,2.882,2.882,0,0,1-2.36.9,7.9,7.9,0,0,1-2.9-.6l-0.4,1.6a9.012,9.012,0,0,0,3.3.6c3.4,0,5.1-1.9,5.1-5.6v-9.4h-1.9l-0.04,1.5h-0.04a3.887,3.887,0,0,0-3.32-1.7,3.614,3.614,0,0,0-3.02,1.3,6.121,6.121,0,0,0-1.08,3.9A5.866,5.866,0,0,0,328.166,16853.4Zm13.89-13.4h-2v15h2v-5.6a3.753,3.753,0,0,1,.81-2.3,2.413,2.413,0,0,1,1.89-1.1,2.04,2.04,0,0,1,1.67.7,4.854,4.854,0,0,1,.47,2.5v5.8h1.96v-6c0-3.1-1.133-4.6-3.4-4.6a4.179,4.179,0,0,0-3.36,1.6h-0.04v-6Zm13.732,1.2h-2.04v3.8h-2.2v1.6h2.2v5.2a3.609,3.609,0,0,0,.77,2.6,3.541,3.541,0,0,0,2.53.8,6.442,6.442,0,0,0,2.4-.4l-0.3-1.6a3.578,3.578,0,0,1-1.8.4,1.432,1.432,0,0,1-1.22-.4,3.246,3.246,0,0,1-.34-1.8v-4.8h3.76v-1.6h-3.76v-3.8Zm13.872,5.6,0.4-1.6a8.489,8.489,0,0,0-3.6-.8,5,5,0,0,0-2.96.8,2.442,2.442,0,0,0-1.04,2.1,2.91,2.91,0,0,0,.92,2.2,6.154,6.154,0,0,0,2.98,1.1,2.786,2.786,0,0,1,1.61.6,1.076,1.076,0,0,1,.45,1c0,0.9-.653,1.4-1.96,1.4a6.5,6.5,0,0,1-3.6-1l-0.4,1.6a7.691,7.691,0,0,0,4,1,5,5,0,0,0,2.95-.8,2.614,2.614,0,0,0,1.05-2.2,3.013,3.013,0,0,0-.9-2.3,6.077,6.077,0,0,0-3-1.1,4.113,4.113,0,0,1-1.63-.5,1.309,1.309,0,0,1-.47-1c0-.9.667-1.3,2-1.3a7.021,7.021,0,0,1,3.2.8h0Zm13.24-.2h-0.04l-0.04-2h-1.94v10.4h2.04v-4.6a4.009,4.009,0,0,1,1.28-3.1,4.883,4.883,0,0,1,3.48-1.2v-1.7a5.843,5.843,0,0,0-4.78,2.2h0Zm9.772,0.2a2.49,2.49,0,0,1,2.05-.8,2.378,2.378,0,0,1,2.01.8,3.21,3.21,0,0,1,.75,2.2h-5.62A3.182,3.182,0,0,1,392.672,16846.8Zm6.71,3.8q0.041-.6.04-0.9a5.566,5.566,0,0,0-1.24-3.9,4.494,4.494,0,0,0-3.46-1.4,4.818,4.818,0,0,0-3.57,1.4,5.749,5.749,0,0,0-1.33,4,5.261,5.261,0,0,0,1.43,3.9,4.847,4.847,0,0,0,3.67,1.5,9.287,9.287,0,0,0,3.7-.8l-0.5-1.5a6.583,6.583,0,0,1-3,.7,3.052,3.052,0,0,1-2.29-.8,2.956,2.956,0,0,1-.97-2.2h7.52Zm9.8-3.8,0.4-1.6a8.489,8.489,0,0,0-3.6-.8,5,5,0,0,0-2.96.8,2.442,2.442,0,0,0-1.04,2.1,2.91,2.91,0,0,0,.92,2.2,6.154,6.154,0,0,0,2.98,1.1,2.786,2.786,0,0,1,1.61.6,1.076,1.076,0,0,1,.45,1c0,0.9-.653,1.4-1.96,1.4a6.5,6.5,0,0,1-3.6-1l-0.4,1.6a7.691,7.691,0,0,0,4,1,5,5,0,0,0,2.95-.8,2.614,2.614,0,0,0,1.05-2.2,3.013,3.013,0,0,0-.9-2.3,6.077,6.077,0,0,0-3-1.1,4.113,4.113,0,0,1-1.63-.5,1.309,1.309,0,0,1-.47-1c0-.9.667-1.3,2-1.3a7.021,7.021,0,0,1,3.2.8h0Zm6.156,0a2.49,2.49,0,0,1,2.05-.8,2.378,2.378,0,0,1,2.01.8,3.21,3.21,0,0,1,.75,2.2h-5.62A3.182,3.182,0,0,1,415.334,16846.8Zm6.71,3.8q0.041-.6.04-0.9a5.566,5.566,0,0,0-1.24-3.9,4.494,4.494,0,0,0-3.46-1.4,4.818,4.818,0,0,0-3.57,1.4,5.749,5.749,0,0,0-1.33,4,5.261,5.261,0,0,0,1.43,3.9,4.847,4.847,0,0,0,3.67,1.5,9.287,9.287,0,0,0,3.7-.8l-0.5-1.5a6.583,6.583,0,0,1-3,.7,3.052,3.052,0,0,1-2.29-.8,2.956,2.956,0,0,1-.97-2.2h7.52Zm5.116-4h-0.04l-0.04-2h-1.94v10.4h2.04v-4.6a4.009,4.009,0,0,1,1.28-3.1,4.883,4.883,0,0,1,3.48-1.2v-1.7a5.843,5.843,0,0,0-4.78,2.2h0Zm7.318-2,3.6,10.4h2.8l3.6-10.4h-2.16l-2.78,9.2H439.5l-2.78-9.2h-2.24Zm14.622,2.2a2.49,2.49,0,0,1,2.05-.8,2.378,2.378,0,0,1,2.01.8,3.21,3.21,0,0,1,.75,2.2h-5.62A3.182,3.182,0,0,1,449.1,16846.8Zm6.71,3.8q0.041-.6.04-0.9a5.566,5.566,0,0,0-1.24-3.9,4.494,4.494,0,0,0-3.46-1.4,4.818,4.818,0,0,0-3.57,1.4,5.749,5.749,0,0,0-1.33,4,5.261,5.261,0,0,0,1.43,3.9,4.847,4.847,0,0,0,3.67,1.5,9.287,9.287,0,0,0,3.7-.8l-0.5-1.5a6.583,6.583,0,0,1-3,.7,3.052,3.052,0,0,1-2.29-.8,2.956,2.956,0,0,1-.97-2.2h7.52Zm9.968-10.6v6h-0.04a3.619,3.619,0,0,0-3.16-1.6,3.817,3.817,0,0,0-3.09,1.4,7.645,7.645,0,0,0,.04,8,3.849,3.849,0,0,0,3.05,1.4,3.729,3.729,0,0,0,3.22-1.7h0.04l0.04,1.5h1.9v-15h-2Zm-4.72,6.9a2.44,2.44,0,0,1,2.02-.9,2.255,2.255,0,0,1,1.94,1,4.491,4.491,0,0,1,.76,2.7v0.2a4.1,4.1,0,0,1-.76,2.7,2.255,2.255,0,0,1-1.94,1,2.286,2.286,0,0,1-1.99-1,4.452,4.452,0,0,1-.75-2.8A4.926,4.926,0,0,1,461.058,16846.9Zm13.168,8.1v-3h-2.6v3h2.6Z" transform="translate(-93.906 -16778)"/>
</svg>
